<svg width="164" height="62" viewBox="0 0 164 62" fill="none" xmlns="http://www.w3.org/2000/svg">
<path d="M31.1244 29.9935C36.0368 35.6864 37.6139 36.0696 37.0482 42.1762C36.7386 45.5176 36.9985 48.0845 33.1471 50.7154C29.9803 52.8787 21.0106 42.1762 14.6533 37.2803C8.2961 32.3845 11.9082 28.5134 1.36093 27.8303C-3.4967 27.5156 5.50999 14.0862 14.7978 14.7368C27.8013 15.6476 20.4772 31.6002 26.3564 31.4737C38.2447 31.2178 31.1244 29.9935 31.1244 29.9935Z" fill="#B276C5" fill-opacity="0.858824"/>
<path d="M4.66436 42.1759C26.9147 43.2006 17.6878 8.9914 28.6484 11.093C44.4604 14.1249 41.2184 32.0426 34.1388 38.4186C25.7393 45.9832 24.1831 50.7281 11.455 48.6657C-2.67802 46.3756 4.66436 42.1759 4.66436 42.1759Z" fill="url(#paint0_linear_234_35)"/>
<path d="M3.85742 30.6986C4.86234 20.3572 39.0994 9.79896 36.8524 26.3378C30.4842 73.2089 4.2864 32.146 3.85742 30.6986Z" fill="#6E40CB"/>
<path d="M18.5043 40.7656V29.8565H21.5298V40.7656H18.5043ZM20.0241 28.4503C19.5743 28.4503 19.1884 28.3011 18.8665 28.0028C18.5492 27.6998 18.3906 27.3376 18.3906 26.9162C18.3906 26.4995 18.5492 26.142 18.8665 25.8437C19.1884 25.5407 19.5743 25.3892 20.0241 25.3892C20.474 25.3892 20.8575 25.5407 21.1747 25.8437C21.4967 26.142 21.6577 26.4995 21.6577 26.9162C21.6577 27.3376 21.4967 27.6998 21.1747 28.0028C20.8575 28.3011 20.474 28.4503 20.0241 28.4503Z" fill="white" fill-opacity="0.966102"/>
<path d="M45.518 23.224H47.838V35H45.518V23.224ZM60.7494 33.816C60.6108 33.9653 60.3921 34.12 60.0934 34.28C59.7948 34.4293 59.4481 34.568 59.0534 34.696C58.6694 34.824 58.2748 34.9253 57.8694 35C57.4641 35.0853 57.0801 35.128 56.7174 35.128C55.7574 35.128 54.8934 34.9893 54.1254 34.712C53.3574 34.424 52.7014 34.0293 52.1574 33.528C51.6134 33.016 51.1974 32.4133 50.9094 31.72C50.6214 31.0267 50.4774 30.2693 50.4774 29.448C50.4774 28.3707 50.6374 27.4373 50.9574 26.648C51.2881 25.848 51.7308 25.1867 52.2854 24.664C52.8508 24.1307 53.4961 23.736 54.2214 23.48C54.9574 23.224 55.7254 23.096 56.5254 23.096C57.2828 23.096 57.9761 23.1813 58.6054 23.352C59.2348 23.512 59.7681 23.7147 60.2054 23.96L59.4534 26.12C59.2614 26.0133 59.0054 25.9067 58.6854 25.8C58.3654 25.6933 58.0401 25.608 57.7094 25.544C57.3788 25.4693 57.0854 25.432 56.8294 25.432C56.1894 25.432 55.6241 25.512 55.1334 25.672C54.6428 25.832 54.2268 26.072 53.8854 26.392C53.5548 26.712 53.3041 27.112 53.1334 27.592C52.9628 28.0613 52.8774 28.6107 52.8774 29.24C52.8774 29.7947 52.9734 30.296 53.1654 30.744C53.3574 31.1813 53.6241 31.5547 53.9654 31.864C54.3174 32.1733 54.7281 32.408 55.1974 32.568C55.6774 32.728 56.2054 32.808 56.7814 32.808C57.1121 32.808 57.4161 32.7867 57.6934 32.744C57.9708 32.6907 58.2054 32.6107 58.3974 32.504V31.08H56.3654V28.84H60.7494V33.816ZM67.1609 23.224C68.3876 23.224 69.3636 23.4747 70.0889 23.976C70.8143 24.4667 71.1769 25.2027 71.1769 26.184C71.1769 26.9093 70.9956 27.5173 70.6329 28.008C70.2809 28.488 69.7956 28.8507 69.1769 29.096C68.5689 29.3307 67.8703 29.448 67.0809 29.448L66.7129 28.2C67.6836 28.2 68.5423 28.3333 69.2889 28.6C70.0463 28.8667 70.6436 29.2507 71.0809 29.752C71.5183 30.2427 71.7369 30.8347 71.7369 31.528C71.7369 32.168 71.6196 32.712 71.3849 33.16C71.1609 33.5973 70.8516 33.9547 70.4569 34.232C70.0729 34.4987 69.6356 34.696 69.1449 34.824C68.6543 34.9413 68.1476 35 67.6249 35H63.7049V23.224H67.1609ZM67.4329 28.04C67.8916 28.04 68.2276 27.9013 68.4409 27.624C68.6649 27.3467 68.7769 27.032 68.7769 26.68C68.7769 26.2747 68.6383 25.9707 68.3609 25.768C68.0943 25.5653 67.7316 25.464 67.2729 25.464H66.0249V28.04H67.4329ZM67.5129 32.84C67.8543 32.84 68.1636 32.7973 68.4409 32.712C68.7183 32.616 68.9369 32.472 69.0969 32.28C69.2569 32.0773 69.3369 31.8267 69.3369 31.528C69.3369 31.1867 69.2409 30.9307 69.0489 30.76C68.8569 30.5787 68.6063 30.456 68.2969 30.392C67.9983 30.3173 67.6836 30.28 67.3529 30.28H66.0249V32.84H67.5129ZM72.65 35L77.962 22.76H78.09L83.402 35H80.714L77.322 26.392L79.002 25.24L74.938 35H72.65ZM76.282 30.744H79.818L80.634 32.696H75.562L76.282 30.744ZM95.9827 35.48L87.0547 27.416L87.7427 27.8L87.7907 35H85.4387V22.76H85.5347L94.2707 30.792L93.7587 30.568L93.7107 23.224H96.0467V35.48H95.9827ZM102.455 31.336L98.1193 23.224H100.983L104.023 29.336L103.335 29.384L106.327 23.224H109.191L104.775 31.336V35H102.455V31.336ZM111.266 23.224H119.298V25.464H113.586V27.976H118.642V30.216H113.586V32.76H119.522V35H111.266V23.224ZM127.046 29.128C127.046 28.3173 127.2 27.5493 127.51 26.824C127.819 26.0987 128.246 25.4587 128.79 24.904C129.344 24.3387 129.984 23.896 130.71 23.576C131.435 23.256 132.214 23.096 133.046 23.096C133.867 23.096 134.64 23.256 135.366 23.576C136.091 23.896 136.731 24.3387 137.286 24.904C137.851 25.4587 138.288 26.0987 138.598 26.824C138.918 27.5493 139.078 28.3173 139.078 29.128C139.078 29.96 138.918 30.7387 138.598 31.464C138.288 32.1893 137.851 32.8293 137.286 33.384C136.731 33.928 136.091 34.3547 135.366 34.664C134.64 34.9733 133.867 35.128 133.046 35.128C132.214 35.128 131.435 34.9733 130.71 34.664C129.984 34.3547 129.344 33.928 128.79 33.384C128.246 32.8293 127.819 32.1893 127.51 31.464C127.2 30.7387 127.046 29.96 127.046 29.128ZM129.446 29.128C129.446 29.6507 129.536 30.1413 129.718 30.6C129.91 31.048 130.171 31.448 130.502 31.8C130.843 32.1413 131.232 32.408 131.67 32.6C132.118 32.792 132.603 32.888 133.126 32.888C133.627 32.888 134.091 32.792 134.518 32.6C134.955 32.408 135.334 32.1413 135.654 31.8C135.974 31.448 136.224 31.048 136.406 30.6C136.587 30.1413 136.678 29.6507 136.678 29.128C136.678 28.5947 136.582 28.0987 136.39 27.64C136.208 27.1813 135.952 26.7813 135.622 26.44C135.302 26.088 134.923 25.816 134.486 25.624C134.048 25.432 133.574 25.336 133.062 25.336C132.55 25.336 132.075 25.432 131.638 25.624C131.2 25.816 130.816 26.088 130.486 26.44C130.155 26.7813 129.899 27.1813 129.718 27.64C129.536 28.0987 129.446 28.5947 129.446 29.128ZM131.798 36.872C131.798 36.5413 131.926 36.2693 132.182 36.056C132.448 35.8427 132.731 35.736 133.03 35.736C133.328 35.736 133.6 35.8427 133.846 36.056C134.102 36.2693 134.23 36.5413 134.23 36.872C134.23 37.2027 134.102 37.4693 133.846 37.672C133.6 37.8853 133.328 37.992 133.03 37.992C132.731 37.992 132.448 37.8853 132.182 37.672C131.926 37.4693 131.798 37.2027 131.798 36.872ZM144.063 27.416L143.999 28.008L144.351 27.56L148.191 23.224H151.199L146.335 28.504L151.215 35H148.271L144.639 29.976L144.063 30.552V35H141.711V23.224H144.063V27.416ZM155.376 30.648C155.376 31.0213 155.488 31.3787 155.712 31.72C155.936 32.0613 156.23 32.3387 156.592 32.552C156.966 32.7653 157.371 32.872 157.808 32.872C158.288 32.872 158.715 32.7653 159.088 32.552C159.462 32.3387 159.755 32.0613 159.968 31.72C160.192 31.3787 160.304 31.0213 160.304 30.648V23.224H162.592V30.696C162.592 31.56 162.379 32.328 161.952 33C161.526 33.6613 160.95 34.184 160.224 34.568C159.499 34.9413 158.694 35.128 157.808 35.128C156.934 35.128 156.134 34.9413 155.408 34.568C154.694 34.184 154.123 33.6613 153.696 33C153.27 32.328 153.056 31.56 153.056 30.696V23.224H155.376V30.648ZM156.56 36.872C156.56 36.5413 156.688 36.2693 156.944 36.056C157.211 35.8427 157.494 35.736 157.792 35.736C158.091 35.736 158.363 35.8427 158.608 36.056C158.864 36.2693 158.992 36.5413 158.992 36.872C158.992 37.2027 158.864 37.4693 158.608 37.672C158.363 37.8853 158.091 37.992 157.792 37.992C157.494 37.992 157.211 37.8853 156.944 37.672C156.688 37.4693 156.56 37.2027 156.56 36.872Z" fill="white"/>
<defs>
<linearGradient id="paint0_linear_234_35" x1="2.79828" y1="29.9908" x2="40.3038" y2="29.9908" gradientUnits="userSpaceOnUse">
<stop stop-color="#9DA0E8"/>
<stop offset="1" stop-color="#BC62B5" stop-opacity="0.793103"/>
</linearGradient>
</defs>
</svg>
